STARTFONT 2.1
COMMENT
COMMENT Converted from OpenType font "ShareTechMono-Regular.ttf" by "otf2bdf 3.0".
COMMENT
FONT -FreeType-Share Tech Mono-Medium-R-Normal--17-120-100-100-P-64-ISO10646-1
SIZE 12 100 100
FONTBOUNDINGBOX 18 18 -1 -4
STARTPROPERTIES 19
FOUNDRY "FreeType"
FAMILY_NAME "Share Tech Mono"
WEIGHT_NAME "Medium"
SLANT "R"
SETWIDTH_NAME "Normal"
ADD_STYLE_NAME ""
PIXEL_SIZE 17
POINT_SIZE 120
RESOLUTION_X 100
RESOLUTION_Y 100
SPACING "P"
AVERAGE_WIDTH 64
CHARSET_REGISTRY "ISO10646"
CHARSET_ENCODING "1"
FONT_ASCENT 15
FONT_DESCENT 4
COPYRIGHT "Copyright (c) 2012, Carrois Type Design, Ralph du Carrois (post@carrois.com www.carrois.com), with Reserved Font Name 'Share'"
_OTF_FONTFILE "ShareTechMono-Regular.ttf"
_OTF_PSNAME "ShareTechMono-Regular"
ENDPROPERTIES
CHARS 267
STARTCHAR 0000
ENCODING 0
SWIDTH 0 0
DWIDTH 0 0
BBX 0 0 0 0
BITMAP
ENDCHAR
STARTCHAR 000D
ENCODING 13
SWIDTH 540 0
DWIDTH 9 0
BBX 0 0 0 0
BITMAP
ENDCHAR
STARTCHAR 0020
ENCODING 32
SWIDTH 540 0
DWIDTH 9 0
BBX 0 0 0 0
BITMAP
ENDCHAR
STARTCHAR 0021
ENCODING 33
SWIDTH 540 0
DWIDTH 9 0
BBX 1 11 4 0
BITMAP
80
80
80
80
80
80
80
80
00
00
80
ENDCHAR
STARTCHAR 0022
ENCODING 34
SWIDTH 540 0
DWIDTH 9 0
BBX 5 4 2 7
BITMAP
D8
D8
50
50
ENDCHAR
STARTCHAR 0023
ENCODING 35
SWIDTH 540 0
DWIDTH 9 0
BBX 7 11 1 0
BITMAP
6C
6C
6C
FE
6C
6C
6C
FE
6C
6C
6C
ENDCHAR
STARTCHAR 0024
ENCODING 36
SWIDTH 540 0
DWIDTH 9 0
BBX 5 14 2 -1
BITMAP
20
20
78
C0
80
80
80
70
08
08
08
18
F0
20
ENDCHAR
STARTCHAR 0025
ENCODING 37
SWIDTH 540 0
DWIDTH 9 0
BBX 9 11 0 0
BITMAP
7000
4800
4800
7000
0780
F800
0700
0900
0900
0900
0700
ENDCHAR
STARTCHAR 0026
ENCODING 38
SWIDTH 540 0
DWIDTH 9 0
BBX 7 11 1 0
BITMAP
78
40
40
40
7E
44
C4
C4
C4
44
7C
ENDCHAR
STARTCHAR 0027
ENCODING 39
SWIDTH 540 0
DWIDTH 9 0
BBX 1 4 4 7
BITMAP
80
80
80
80
ENDCHAR
STARTCHAR 0028
ENCODING 40
SWIDTH 540 0
DWIDTH 9 0
BBX 3 15 3 -2
BITMAP
60
40
C0
80
80
80
80
80
80
80
80
80
C0
40
60
ENDCHAR
STARTCHAR 0029
ENCODING 41
SWIDTH 540 0
DWIDTH 9 0
BBX 3 15 3 -2
BITMAP
C0
40
60
20
20
20
20
20
20
20
20
20
60
40
C0
ENDCHAR
STARTCHAR 002A
ENCODING 42
SWIDTH 540 0
DWIDTH 9 0
BBX 7 6 1 5
BITMAP
10
10
FE
38
68
44
ENDCHAR
STARTCHAR 002B
ENCODING 43
SWIDTH 540 0
DWIDTH 9 0
BBX 7 6 1 2
BITMAP
10
10
FE
10
10
10
ENDCHAR
STARTCHAR 002C
ENCODING 44
SWIDTH 540 0
DWIDTH 9 0
BBX 3 4 3 -2
BITMAP
60
60
40
C0
ENDCHAR
STARTCHAR 002D
ENCODING 45
SWIDTH 540 0
DWIDTH 9 0
BBX 5 1 2 5
BITMAP
F8
ENDCHAR
STARTCHAR 002E
ENCODING 46
SWIDTH 540 0
DWIDTH 9 0
BBX 1 1 4 0
BITMAP
80
ENDCHAR
STARTCHAR 002F
ENCODING 47
SWIDTH 540 0
DWIDTH 9 0
BBX 7 15 1 -2
BITMAP
02
06
04
04
0C
08
18
10
30
20
20
60
40
C0
80
ENDCHAR
STARTCHAR 0030
ENCODING 48
SWIDTH 540 0
DWIDTH 9 0
BBX 5 11 2 0
BITMAP
F8
88
88
98
98
A8
E8
C8
88
88
70
ENDCHAR
STARTCHAR 0031
ENCODING 49
SWIDTH 540 0
DWIDTH 9 0
BBX 5 11 2 0
BITMAP
60
E0
20
20
20
20
20
20
20
20
F8
ENDCHAR
STARTCHAR 0032
ENCODING 50
SWIDTH 540 0
DWIDTH 9 0
BBX 5 11 2 0
BITMAP
F0
18
18
18
18
10
30
60
40
C0
F8
ENDCHAR
STARTCHAR 0033
ENCODING 51
SWIDTH 540 0
DWIDTH 9 0
BBX 5 11 2 0
BITMAP
F0
18
18
18
18
70
18
08
08
18
F0
ENDCHAR
STARTCHAR 0034
ENCODING 52
SWIDTH 540 0
DWIDTH 9 0
BBX 7 11 1 0
BITMAP
30
20
20
60
48
48
48
FE
08
08
08
ENDCHAR
STARTCHAR 0035
ENCODING 53
SWIDTH 540 0
DWIDTH 9 0
BBX 5 11 2 0
BITMAP
F8
C0
C0
C0
F0
18
08
08
08
18
F0
ENDCHAR
STARTCHAR 0036
ENCODING 54
SWIDTH 540 0
DWIDTH 9 0
BBX 5 11 2 0
BITMAP
78
80
80
80
F8
88
88
88
88
88
70
ENDCHAR
STARTCHAR 0037
ENCODING 55
SWIDTH 540 0
DWIDTH 9 0
BBX 5 11 2 0
BITMAP
F8
08
18
18
10
30
30
20
20
60
40
ENDCHAR
STARTCHAR 0038
ENCODING 56
SWIDTH 540 0
DWIDTH 9 0
BBX 7 11 1 0
BITMAP
7C
44
44
44
44
7C
44
C6
C6
44
7C
ENDCHAR
STARTCHAR 0039
ENCODING 57
SWIDTH 540 0
DWIDTH 9 0
BBX 5 11 2 0
BITMAP
70
88
88
88
88
88
F8
08
08
08
70
ENDCHAR
STARTCHAR 003A
ENCODING 58
SWIDTH 540 0
DWIDTH 9 0
BBX 1 8 4 0
BITMAP
80
00
00
00
00
00
00
80
ENDCHAR
STARTCHAR 003B
ENCODING 59
SWIDTH 540 0
DWIDTH 9 0
BBX 3 10 3 -2
BITMAP
60
00
00
00
00
00
60
60
40
C0
ENDCHAR
STARTCHAR 003C
ENCODING 60
SWIDTH 540 0
DWIDTH 9 0
BBX 7 7 1 2
BITMAP
06
1C
F0
C0
70
1C
06
ENDCHAR
STARTCHAR 003D
ENCODING 61
SWIDTH 540 0
DWIDTH 9 0
BBX 7 4 1 3
BITMAP
FE
00
00
FE
ENDCHAR
STARTCHAR 003E
ENCODING 62
SWIDTH 540 0
DWIDTH 9 0
BBX 7 7 1 2
BITMAP
C0
70
0E
06
1C
70
C0
ENDCHAR
STARTCHAR 003F
ENCODING 63
SWIDTH 540 0
DWIDTH 9 0
BBX 5 11 2 0
BITMAP
F0
18
18
18
18
30
60
60
00
00
60
ENDCHAR
STARTCHAR 0040
ENCODING 64
SWIDTH 540 0
DWIDTH 9 0
BBX 9 11 0 0
BITMAP
7F00
4100
DD80
D580
D580
D580
D580
D580
DB00
4000
7C00
ENDCHAR
STARTCHAR 0041
ENCODING 65
SWIDTH 540 0
DWIDTH 9 0
BBX 7 11 1 0
BITMAP
38
28
28
28
6C
44
44
7C
C6
C6
82
ENDCHAR
STARTCHAR 0042
ENCODING 66
SWIDTH 540 0
DWIDTH 9 0
BBX 7 11 1 0
BITMAP
FC
C4
C4
C4
C4
FC
C4
C6
C6
C4
FC
ENDCHAR
STARTCHAR 0043
ENCODING 67
SWIDTH 540 0
DWIDTH 9 0
BBX 5 11 2 0
BITMAP
78
C0
80
80
80
80
80
80
80
C0
78
ENDCHAR
STARTCHAR 0044
ENCODING 68
SWIDTH 540 0
DWIDTH 9 0
BBX 7 11 1 0
BITMAP
FC
C6
C6
C6
C6
C6
C6
C6
C6
C6
FC
ENDCHAR
STARTCHAR 0045
ENCODING 69
SWIDTH 540 0
DWIDTH 9 0
BBX 5 11 2 0
BITMAP
F8
80
80
80
80
F8
80
80
80
80
F8
ENDCHAR
STARTCHAR 0046
ENCODING 70
SWIDTH 540 0
DWIDTH 9 0
BBX 5 11 2 0
BITMAP
F8
80
80
80
80
F8
80
80
80
80
80
ENDCHAR
STARTCHAR 0047
ENCODING 71
SWIDTH 540 0
DWIDTH 9 0
BBX 5 11 2 0
BITMAP
78
80
80
80
80
98
88
88
88
88
78
ENDCHAR
STARTCHAR 0048
ENCODING 72
SWIDTH 540 0
DWIDTH 9 0
BBX 7 11 1 0
BITMAP
C6
C6
C6
C6
C6
FE
C6
C6
C6
C6
C6
ENDCHAR
STARTCHAR 0049
ENCODING 73
SWIDTH 540 0
DWIDTH 9 0
BBX 5 11 2 0
BITMAP
F8
20
20
20
20
20
20
20
20
20
F8
ENDCHAR
STARTCHAR 004A
ENCODING 74
SWIDTH 540 0
DWIDTH 9 0
BBX 5 11 2 0
BITMAP
78
18
18
18
18
18
18
18
18
18
F0
ENDCHAR
STARTCHAR 004B
ENCODING 75
SWIDTH 540 0
DWIDTH 9 0
BBX 7 11 1 0
BITMAP
C6
CC
D8
D0
F0
F0
D0
D8
C8
CC
C6
ENDCHAR
STARTCHAR 004C
ENCODING 76
SWIDTH 540 0
DWIDTH 9 0
BBX 5 11 2 0
BITMAP
80
80
80
80
80
80
80
80
80
80
F8
ENDCHAR
STARTCHAR 004D
ENCODING 77
SWIDTH 540 0
DWIDTH 9 0
BBX 7 11 1 0
BITMAP
C6
E6
AA
AA
AA
BA
92
82
82
82
82
ENDCHAR
STARTCHAR 004E
ENCODING 78
SWIDTH 540 0
DWIDTH 9 0
BBX 7 11 1 0
BITMAP
E6
E6
E6
F6
D6
D6
D6
DE
CE
CE
CE
ENDCHAR
STARTCHAR 004F
ENCODING 79
SWIDTH 540 0
DWIDTH 9 0
BBX 7 11 1 0
BITMAP
7C
C6
C6
C6
C6
C6
C6
C6
C6
C6
7C
ENDCHAR
STARTCHAR 0050
ENCODING 80
SWIDTH 540 0
DWIDTH 9 0
BBX 7 11 1 0
BITMAP
FC
C4
C6
C6
C4
FC
C0
C0
C0
C0
C0
ENDCHAR
STARTCHAR 0051
ENCODING 81
SWIDTH 540 0
DWIDTH 9 0
BBX 8 12 1 -1
BITMAP
7C
C6
C6
C6
C6
C6
C6
C6
C6
C6
7E
03
ENDCHAR
STARTCHAR 0052
ENCODING 82
SWIDTH 540 0
DWIDTH 9 0
BBX 7 11 1 0
BITMAP
F8
CC
C4
C4
C4
F8
D8
C8
CC
C4
C6
ENDCHAR
STARTCHAR 0053
ENCODING 83
SWIDTH 540 0
DWIDTH 9 0
BBX 5 11 2 0
BITMAP
78
C0
80
80
80
F8
08
08
08
18
F0
ENDCHAR
STARTCHAR 0054
ENCODING 84
SWIDTH 540 0
DWIDTH 9 0
BBX 7 11 1 0
BITMAP
FE
10
10
10
10
10
10
10
10
10
10
ENDCHAR
STARTCHAR 0055
ENCODING 85
SWIDTH 540 0
DWIDTH 9 0
BBX 7 11 1 0
BITMAP
C6
C6
C6
C6
C6
C6
C6
C6
C6
C6
7C
ENDCHAR
STARTCHAR 0056
ENCODING 86
SWIDTH 540 0
DWIDTH 9 0
BBX 7 11 1 0
BITMAP
C6
C6
C4
44
44
6C
68
28
28
38
30
ENDCHAR
STARTCHAR 0057
ENCODING 87
SWIDTH 540 0
DWIDTH 9 0
BBX 7 11 1 0
BITMAP
82
82
82
82
82
92
BA
AA
EE
EE
EE
ENDCHAR
STARTCHAR 0058
ENCODING 88
SWIDTH 540 0
DWIDTH 9 0
BBX 7 11 1 0
BITMAP
C6
44
6C
28
38
10
38
28
6C
44
C6
ENDCHAR
STARTCHAR 0059
ENCODING 89
SWIDTH 540 0
DWIDTH 9 0
BBX 7 11 1 0
BITMAP
C6
C4
64
68
28
30
10
10
10
10
10
ENDCHAR
STARTCHAR 005A
ENCODING 90
SWIDTH 540 0
DWIDTH 9 0
BBX 7 11 1 0
BITMAP
7E
04
0C
08
18
10
30
20
60
C0
FC
ENDCHAR
STARTCHAR 005B
ENCODING 91
SWIDTH 540 0
DWIDTH 9 0
BBX 3 15 3 -2
BITMAP
E0
80
80
80
80
80
80
80
80
80
80
80
80
80
E0
ENDCHAR
STARTCHAR 005C
ENCODING 92
SWIDTH 540 0
DWIDTH 9 0
BBX 7 15 1 -2
BITMAP
80
C0
40
40
60
20
30
10
18
08
08
0C
04
06
02
ENDCHAR
STARTCHAR 005D
ENCODING 93
SWIDTH 540 0
DWIDTH 9 0
BBX 3 15 3 -2
BITMAP
E0
20
20
20
20
20
20
20
20
20
20
20
20
20
E0
ENDCHAR
STARTCHAR 005E
ENCODING 94
SWIDTH 540 0
DWIDTH 9 0
BBX 7 6 1 7
BITMAP
10
38
28
6C
44
C6
ENDCHAR
STARTCHAR 005F
ENCODING 95
SWIDTH 540 0
DWIDTH 9 0
BBX 9 1 0 -3
BITMAP
FF80
ENDCHAR
STARTCHAR 0060
ENCODING 96
SWIDTH 540 0
DWIDTH 9 0
BBX 3 2 3 9
BITMAP
C0
60
ENDCHAR
STARTCHAR 0061
ENCODING 97
SWIDTH 540 0
DWIDTH 9 0
BBX 7 8 1 0
BITMAP
78
0C
04
7C
C4
C4
C4
7E
ENDCHAR
STARTCHAR 0062
ENCODING 98
SWIDTH 540 0
DWIDTH 9 0
BBX 7 11 1 0
BITMAP
C0
C0
C0
FC
C4
C6
C6
C6
C6
C4
FC
ENDCHAR
STARTCHAR 0063
ENCODING 99
SWIDTH 540 0
DWIDTH 9 0
BBX 5 8 2 0
BITMAP
78
C0
80
80
80
80
C0
78
ENDCHAR
STARTCHAR 0064
ENCODING 100
SWIDTH 540 0
DWIDTH 9 0
BBX 7 11 1 0
BITMAP
06
06
06
7E
46
C6
C6
C6
C6
46
7E
ENDCHAR
STARTCHAR 0065
ENCODING 101
SWIDTH 540 0
DWIDTH 9 0
BBX 5 8 2 0
BITMAP
F8
88
88
F8
80
80
80
F8
ENDCHAR
STARTCHAR 0066
ENCODING 102
SWIDTH 540 0
DWIDTH 9 0
BBX 5 11 2 0
BITMAP
78
60
40
F8
40
40
40
40
40
40
F8
ENDCHAR
STARTCHAR 0067
ENCODING 103
SWIDTH 540 0
DWIDTH 9 0
BBX 7 11 1 -3
BITMAP
7E
C6
C6
C6
C4
7C
7C
06
06
06
7C
ENDCHAR
STARTCHAR 0068
ENCODING 104
SWIDTH 540 0
DWIDTH 9 0
BBX 7 11 1 0
BITMAP
C0
C0
C0
FC
C4
C6
C6
C6
C6
C6
C6
ENDCHAR
STARTCHAR 0069
ENCODING 105
SWIDTH 540 0
DWIDTH 9 0
BBX 7 11 1 0
BITMAP
10
00
00
F0
10
10
10
10
10
10
1E
ENDCHAR
STARTCHAR 006A
ENCODING 106
SWIDTH 540 0
DWIDTH 9 0
BBX 5 14 2 -3
BITMAP
18
00
00
78
18
18
18
18
18
18
18
18
18
F0
ENDCHAR
STARTCHAR 006B
ENCODING 107
SWIDTH 540 0
DWIDTH 9 0
BBX 6 11 2 0
BITMAP
80
80
80
98
B0
E0
E0
A0
B0
98
8C
ENDCHAR
STARTCHAR 006C
ENCODING 108
SWIDTH 540 0
DWIDTH 9 0
BBX 7 11 1 0
BITMAP
F0
10
10
10
10
10
10
10
10
10
1E
ENDCHAR
STARTCHAR 006D
ENCODING 109
SWIDTH 540 0
DWIDTH 9 0
BBX 7 8 1 0
BITMAP
FE
92
92
92
92
92
92
92
ENDCHAR
STARTCHAR 006E
ENCODING 110
SWIDTH 540 0
DWIDTH 9 0
BBX 7 8 1 0
BITMAP
FC
C4
C6
C6
C6
C6
C6
C6
ENDCHAR
STARTCHAR 006F
ENCODING 111
SWIDTH 540 0
DWIDTH 9 0
BBX 7 8 1 0
BITMAP
7C
44
C6
C6
C6
C6
44
7C
ENDCHAR
STARTCHAR 0070
ENCODING 112
SWIDTH 540 0
DWIDTH 9 0
BBX 7 11 1 -3
BITMAP
FC
C4
C6
C6
C6
C6
C4
FC
C0
C0
C0
ENDCHAR
STARTCHAR 0071
ENCODING 113
SWIDTH 540 0
DWIDTH 9 0
BBX 7 11 1 -3
BITMAP
7E
46
C6
C6
C6
C6
46
7E
06
06
06
ENDCHAR
STARTCHAR 0072
ENCODING 114
SWIDTH 540 0
DWIDTH 9 0
BBX 5 8 2 0
BITMAP
F8
60
40
40
40
40
40
F0
ENDCHAR
STARTCHAR 0073
ENCODING 115
SWIDTH 540 0
DWIDTH 9 0
BBX 5 8 2 0
BITMAP
78
80
80
F0
08
08
18
F0
ENDCHAR
STARTCHAR 0074
ENCODING 116
SWIDTH 540 0
DWIDTH 9 0
BBX 5 10 2 0
BITMAP
60
60
F8
60
60
60
60
60
60
38
ENDCHAR
STARTCHAR 0075
ENCODING 117
SWIDTH 540 0
DWIDTH 9 0
BBX 5 8 2 0
BITMAP
88
88
88
88
88
88
88
F8
ENDCHAR
STARTCHAR 0076
ENCODING 118
SWIDTH 540 0
DWIDTH 9 0
BBX 7 8 1 0
BITMAP
C6
44
44
6C
6C
28
28
38
ENDCHAR
STARTCHAR 0077
ENCODING 119
SWIDTH 540 0
DWIDTH 9 0
BBX 7 8 1 0
BITMAP
82
92
92
DA
EE
6C
6C
6C
ENDCHAR
STARTCHAR 0078
ENCODING 120
SWIDTH 540 0
DWIDTH 9 0
BBX 7 8 1 0
BITMAP
C6
6C
28
30
38
28
6C
C6
ENDCHAR
STARTCHAR 0079
ENCODING 121
SWIDTH 540 0
DWIDTH 9 0
BBX 7 11 1 -3
BITMAP
C6
46
44
64
2C
28
38
18
18
10
70
ENDCHAR
STARTCHAR 007A
ENCODING 122
SWIDTH 540 0
DWIDTH 9 0
BBX 5 8 2 0
BITMAP
F8
18
10
30
60
40
C0
F8
ENDCHAR
STARTCHAR 007B
ENCODING 123
SWIDTH 540 0
DWIDTH 9 0
BBX 5 15 2 -2
BITMAP
38
20
20
20
20
20
20
C0
60
20
20
20
20
20
38
ENDCHAR
STARTCHAR 007C
ENCODING 124
SWIDTH 540 0
DWIDTH 9 0
BBX 1 15 4 -2
BITMAP
80
80
80
80
80
80
80
80
80
80
80
80
80
80
80
ENDCHAR
STARTCHAR 007D
ENCODING 125
SWIDTH 540 0
DWIDTH 9 0
BBX 5 15 2 -2
BITMAP
E0
20
20
20
20
20
20
18
30
20
20
20
20
20
E0
ENDCHAR
STARTCHAR 007E
ENCODING 126
SWIDTH 540 0
DWIDTH 9 0
BBX 5 2 2 4
BITMAP
E8
B8
ENDCHAR
STARTCHAR 00A0
ENCODING 160
SWIDTH 540 0
DWIDTH 9 0
BBX 0 0 0 0
BITMAP
ENDCHAR
STARTCHAR 00A1
ENCODING 161
SWIDTH 540 0
DWIDTH 9 0
BBX 1 11 4 -3
BITMAP
80
00
00
80
80
80
80
80
80
80
80
ENDCHAR
STARTCHAR 00A2
ENCODING 162
SWIDTH 540 0
DWIDTH 9 0
BBX 5 11 2 -1
BITMAP
30
30
78
C0
80
80
80
80
C0
78
30
ENDCHAR
STARTCHAR 00A3
ENCODING 163
SWIDTH 540 0
DWIDTH 9 0
BBX 5 11 2 0
BITMAP
38
60
40
40
F0
40
40
40
40
40
F8
ENDCHAR
STARTCHAR 00A4
ENCODING 164
SWIDTH 540 0
DWIDTH 9 0
BBX 9 8 0 1
BITMAP
4100
FF80
6300
6300
6300
6300
7F00
C180
ENDCHAR
STARTCHAR 00A5
ENCODING 165
SWIDTH 540 0
DWIDTH 9 0
BBX 7 11 1 0
BITMAP
C6
44
6C
28
38
30
7C
10
7C
10
10
ENDCHAR
STARTCHAR 00A6
ENCODING 166
SWIDTH 540 0
DWIDTH 9 0
BBX 1 15 4 -2
BITMAP
80
80
80
80
80
80
00
00
00
80
80
80
80
80
80
ENDCHAR
STARTCHAR 00A7
ENCODING 167
SWIDTH 540 0
DWIDTH 9 0
BBX 5 11 2 0
BITMAP
78
C0
C0
70
88
88
88
F8
18
18
F0
ENDCHAR
STARTCHAR 00A8
ENCODING 168
SWIDTH 540 0
DWIDTH 9 0
BBX 5 1 2 10
BITMAP
D8
ENDCHAR
STARTCHAR 00A9
ENCODING 169
SWIDTH 540 0
DWIDTH 9 0
BBX 9 11 0 0
BITMAP
7F00
4100
DD80
D180
D180
D180
D180
DD80
C180
4100
7F00
ENDCHAR
STARTCHAR 00AA
ENCODING 170
SWIDTH 540 0
DWIDTH 9 0
BBX 5 11 2 0
BITMAP
70
10
70
90
90
F8
00
00
00
00
F8
ENDCHAR
STARTCHAR 00AB
ENCODING 171
SWIDTH 540 0
DWIDTH 9 0
BBX 5 7 2 1
BITMAP
48
58
D0
90
D0
58
48
ENDCHAR
STARTCHAR 00AC
ENCODING 172
SWIDTH 540 0
DWIDTH 9 0
BBX 7 4 1 2
BITMAP
FE
02
02
02
ENDCHAR
STARTCHAR 00AD
ENCODING 173
SWIDTH 540 0
DWIDTH 9 0
BBX 5 1 2 5
BITMAP
F8
ENDCHAR
STARTCHAR 00AE
ENCODING 174
SWIDTH 540 0
DWIDTH 9 0
BBX 9 11 0 0
BITMAP
7F00
4100
DD80
D580
D580
DD80
D580
D580
C380
4100
7F00
ENDCHAR
STARTCHAR 00AF
ENCODING 175
SWIDTH 540 0
DWIDTH 9 0
BBX 5 1 2 10
BITMAP
F8
ENDCHAR
STARTCHAR 00B0
ENCODING 176
SWIDTH 540 0
DWIDTH 9 0
BBX 5 5 2 6
BITMAP
70
D8
88
88
70
ENDCHAR
STARTCHAR 00B1
ENCODING 177
SWIDTH 540 0
DWIDTH 9 0
BBX 7 8 1 0
BITMAP
10
10
FE
10
10
10
00
FE
ENDCHAR
STARTCHAR 00B2
ENCODING 178
SWIDTH 540 0
DWIDTH 9 0
BBX 5 8 2 3
BITMAP
70
10
10
10
30
20
40
F8
ENDCHAR
STARTCHAR 00B3
ENCODING 179
SWIDTH 540 0
DWIDTH 9 0
BBX 3 8 3 3
BITMAP
E0
20
20
E0
20
20
20
E0
ENDCHAR
STARTCHAR 00B4
ENCODING 180
SWIDTH 540 0
DWIDTH 9 0
BBX 3 2 3 9
BITMAP
60
C0
ENDCHAR
STARTCHAR 00B5
ENCODING 181
SWIDTH 540 0
DWIDTH 9 0
BBX 5 11 2 -3
BITMAP
88
88
88
88
88
88
88
F8
80
80
80
ENDCHAR
STARTCHAR 00B6
ENCODING 182
SWIDTH 540 0
DWIDTH 9 0
BBX 7 11 1 0
BITMAP
76
C6
86
C6
76
16
16
16
16
16
16
ENDCHAR
STARTCHAR 00B7
ENCODING 183
SWIDTH 540 0
DWIDTH 9 0
BBX 1 1 4 5
BITMAP
80
ENDCHAR
STARTCHAR 00B8
ENCODING 184
SWIDTH 540 0
DWIDTH 9 0
BBX 3 4 3 -3
BITMAP
80
E0
20
E0
ENDCHAR
STARTCHAR 00B9
ENCODING 185
SWIDTH 540 0
DWIDTH 9 0
BBX 5 8 2 3
BITMAP
60
A0
20
20
20
20
20
78
ENDCHAR
STARTCHAR 00BA
ENCODING 186
SWIDTH 540 0
DWIDTH 9 0
BBX 5 11 2 0
BITMAP
70
D8
88
88
98
70
00
00
00
00
F8
ENDCHAR
STARTCHAR 00BB
ENCODING 187
SWIDTH 540 0
DWIDTH 9 0
BBX 5 7 2 1
BITMAP
90
D0
58
48
58
D0
90
ENDCHAR
STARTCHAR 00BC
ENCODING 188
SWIDTH 540 0
DWIDTH 9 0
BBX 9 14 0 -1
BITMAP
0200
0200
E200
E400
6400
6700
6E00
6A00
6B00
FB00
1780
1100
1100
3000
ENDCHAR
STARTCHAR 00BD
ENCODING 189
SWIDTH 540 0
DWIDTH 9 0
BBX 9 14 0 -1
BITMAP
0300
0200
E600
E600
6400
6780
6C80
6880
6880
F900
1100
1300
1380
3000
ENDCHAR
STARTCHAR 00BE
ENCODING 190
SWIDTH 540 0
DWIDTH 9 0
BBX 9 14 0 -1
BITMAP
0200
0200
E600
2400
2400
6700
2A00
2A00
2B00
FB00
1780
1100
3100
2000
ENDCHAR
STARTCHAR 00BF
ENCODING 191
SWIDTH 540 0
DWIDTH 9 0
BBX 5 11 2 -3
BITMAP
30
00
00
30
30
60
40
C0
C0
C0
78
ENDCHAR
STARTCHAR 00C0
ENCODING 192
SWIDTH 540 0
DWIDTH 9 0
BBX 7 14 1 0
BITMAP
60
30
08
38
28
28
28
6C
44
44
7C
C6
C6
82
ENDCHAR
STARTCHAR 00C1
ENCODING 193
SWIDTH 540 0
DWIDTH 9 0
BBX 7 14 1 0
BITMAP
0C
18
20
38
28
28
28
6C
44
44
7C
C6
C6
82
ENDCHAR
STARTCHAR 00C2
ENCODING 194
SWIDTH 540 0
DWIDTH 9 0
BBX 7 14 1 0
BITMAP
10
28
4C
38
28
28
28
6C
44
44
7C
C6
C6
82
ENDCHAR
STARTCHAR 00C3
ENCODING 195
SWIDTH 540 0
DWIDTH 9 0
BBX 7 14 1 0
BITMAP
34
5C
00
38
28
28
28
6C
44
44
7C
C6
C6
82
ENDCHAR
STARTCHAR 00C4
ENCODING 196
SWIDTH 540 0
DWIDTH 9 0
BBX 7 13 1 0
BITMAP
64
00
38
28
28
28
6C
44
44
7C
C6
C6
82
ENDCHAR
STARTCHAR 00C5
ENCODING 197
SWIDTH 540 0
DWIDTH 9 0
BBX 7 14 1 0
BITMAP
38
28
28
38
28
28
28
6C
44
44
7C
C6
C6
82
ENDCHAR
STARTCHAR 00C6
ENCODING 198
SWIDTH 540 0
DWIDTH 9 0
BBX 9 11 0 0
BITMAP
1F00
1800
1C00
3C00
2C00
2700
6400
7C00
4400
4400
C780
ENDCHAR
STARTCHAR 00C7
ENCODING 199
SWIDTH 540 0
DWIDTH 9 0
BBX 5 14 2 -3
BITMAP
78
C0
80
80
80
80
80
80
80
C0
78
30
08
38
ENDCHAR
STARTCHAR 00C8
ENCODING 200
SWIDTH 540 0
DWIDTH 9 0
BBX 5 14 2 0
BITMAP
C0
60
30
F8
80
80
80
80
F8
80
80
80
80
F8
ENDCHAR
STARTCHAR 00C9
ENCODING 201
SWIDTH 540 0
DWIDTH 9 0
BBX 5 14 2 0
BITMAP
18
30
40
F8
80
80
80
80
F8
80
80
80
80
F8
ENDCHAR
STARTCHAR 00CA
ENCODING 202
SWIDTH 540 0
DWIDTH 9 0
BBX 5 14 2 0
BITMAP
20
50
D8
F8
80
80
80
80
F8
80
80
80
80
F8
ENDCHAR
STARTCHAR 00CB
ENCODING 203
SWIDTH 540 0
DWIDTH 9 0
BBX 5 13 2 0
BITMAP
D8
00
F8
80
80
80
80
F8
80
80
80
80
F8
ENDCHAR
STARTCHAR 00CC
ENCODING 204
SWIDTH 540 0
DWIDTH 9 0
BBX 5 14 2 0
BITMAP
C0
60
30
F8
20
20
20
20
20
20
20
20
20
F8
ENDCHAR
STARTCHAR 00CD
ENCODING 205
SWIDTH 540 0
DWIDTH 9 0
BBX 5 14 2 0
BITMAP
18
20
40
F8
20
20
20
20
20
20
20
20
20
F8
ENDCHAR
STARTCHAR 00CE
ENCODING 206
SWIDTH 540 0
DWIDTH 9 0
BBX 5 14 2 0
BITMAP
20
50
D8
F8
20
20
20
20
20
20
20
20
20
F8
ENDCHAR
STARTCHAR 00CF
ENCODING 207
SWIDTH 540 0
DWIDTH 9 0
BBX 5 13 2 0
BITMAP
D8
00
F8
20
20
20
20
20
20
20
20
20
F8
ENDCHAR
STARTCHAR 00D0
ENCODING 208
SWIDTH 540 0
DWIDTH 9 0
BBX 7 11 1 0
BITMAP
7C
46
46
46
46
F6
46
46
46
46
7C
ENDCHAR
STARTCHAR 00D1
ENCODING 209
SWIDTH 540 0
DWIDTH 9 0
BBX 7 14 1 0
BITMAP
34
5C
00
E6
E6
E6
F6
D6
D6
D6
DE
CE
CE
CE
ENDCHAR
STARTCHAR 00D2
ENCODING 210
SWIDTH 540 0
DWIDTH 9 0
BBX 7 14 1 0
BITMAP
60
30
18
7C
C6
C6
C6
C6
C6
C6
C6
C6
C6
7C
ENDCHAR
STARTCHAR 00D3
ENCODING 211
SWIDTH 540 0
DWIDTH 9 0
BBX 7 14 1 0
BITMAP
0C
18
20
7C
C6
C6
C6
C6
C6
C6
C6
C6
C6
7C
ENDCHAR
STARTCHAR 00D4
ENCODING 212
SWIDTH 540 0
DWIDTH 9 0
BBX 7 14 1 0
BITMAP
10
28
4C
7C
C6
C6
C6
C6
C6
C6
C6
C6
C6
7C
ENDCHAR
STARTCHAR 00D5
ENCODING 213
SWIDTH 540 0
DWIDTH 9 0
BBX 7 14 1 0
BITMAP
34
5C
00
7C
C6
C6
C6
C6
C6
C6
C6
C6
C6
7C
ENDCHAR
STARTCHAR 00D6
ENCODING 214
SWIDTH 540 0
DWIDTH 9 0
BBX 7 13 1 0
BITMAP
64
00
7C
C6
C6
C6
C6
C6
C6
C6
C6
C6
7C
ENDCHAR
STARTCHAR 00D7
ENCODING 215
SWIDTH 540 0
DWIDTH 9 0
BBX 5 6 2 2
BITMAP
88
D8
70
70
D8
88
ENDCHAR
STARTCHAR 00D8
ENCODING 216
SWIDTH 540 0
DWIDTH 9 0
BBX 7 14 1 -1
BITMAP
04
04
7C
CE
CE
DE
D6
D6
D6
E6
E6
E6
7C
40
ENDCHAR
STARTCHAR 00D9
ENCODING 217
SWIDTH 540 0
DWIDTH 9 0
BBX 7 14 1 0
BITMAP
60
30
18
C6
C6
C6
C6
C6
C6
C6
C6
C6
C6
7C
ENDCHAR
STARTCHAR 00DA
ENCODING 218
SWIDTH 540 0
DWIDTH 9 0
BBX 7 14 1 0
BITMAP
0C
18
10
C6
C6
C6
C6
C6
C6
C6
C6
C6
C6
7C
ENDCHAR
STARTCHAR 00DB
ENCODING 219
SWIDTH 540 0
DWIDTH 9 0
BBX 7 14 1 0
BITMAP
10
28
64
C6
C6
C6
C6
C6
C6
C6
C6
C6
C6
7C
ENDCHAR
STARTCHAR 00DC
ENCODING 220
SWIDTH 540 0
DWIDTH 9 0
BBX 7 13 1 0
BITMAP
6C
00
C6
C6
C6
C6
C6
C6
C6
C6
C6
C6
7C
ENDCHAR
STARTCHAR 00DD
ENCODING 221
SWIDTH 540 0
DWIDTH 9 0
BBX 7 14 1 0
BITMAP
0C
18
20
C6
C4
64
68
28
30
10
10
10
10
10
ENDCHAR
STARTCHAR 00DE
ENCODING 222
SWIDTH 540 0
DWIDTH 9 0
BBX 6 11 2 0
BITMAP
80
80
F8
88
8C
8C
8C
88
F8
80
80
ENDCHAR
STARTCHAR 00DF
ENCODING 223
SWIDTH 540 0
DWIDTH 9 0
BBX 7 11 1 0
BITMAP
7C
C4
C4
DC
D0
D0
DC
C6
C6
C6
DC
ENDCHAR
STARTCHAR 00E0
ENCODING 224
SWIDTH 540 0
DWIDTH 9 0
BBX 7 11 1 0
BITMAP
60
18
00
78
0C
04
7C
C4
C4
C4
7E
ENDCHAR
STARTCHAR 00E1
ENCODING 225
SWIDTH 540 0
DWIDTH 9 0
BBX 7 11 1 0
BITMAP
0C
30
00
78
0C
04
7C
C4
C4
C4
7E
ENDCHAR
STARTCHAR 00E2
ENCODING 226
SWIDTH 540 0
DWIDTH 9 0
BBX 7 11 1 0
BITMAP
30
6C
00
78
0C
04
7C
C4
C4
C4
7E
ENDCHAR
STARTCHAR 00E3
ENCODING 227
SWIDTH 540 0
DWIDTH 9 0
BBX 7 11 1 0
BITMAP
78
00
00
78
0C
04
7C
C4
C4
C4
7E
ENDCHAR
STARTCHAR 00E4
ENCODING 228
SWIDTH 540 0
DWIDTH 9 0
BBX 7 11 1 0
BITMAP
4C
00
00
78
0C
04
7C
C4
C4
C4
7E
ENDCHAR
STARTCHAR 00E5
ENCODING 229
SWIDTH 540 0
DWIDTH 9 0
BBX 7 12 1 0
BITMAP
30
28
38
00
78
0C
04
7C
C4
C4
C4
7E
ENDCHAR
STARTCHAR 00E6
ENCODING 230
SWIDTH 540 0
DWIDTH 9 0
BBX 9 8 0 0
BITMAP
7700
0980
0980
7F80
4800
C800
CC00
7700
ENDCHAR
STARTCHAR 00E7
ENCODING 231
SWIDTH 540 0
DWIDTH 9 0
BBX 5 11 2 -3
BITMAP
78
C0
80
80
80
80
C0
78
30
18
30
ENDCHAR
STARTCHAR 00E8
ENCODING 232
SWIDTH 540 0
DWIDTH 9 0
BBX 5 11 2 0
BITMAP
60
30
00
F8
88
88
F8
80
80
80
F8
ENDCHAR
STARTCHAR 00E9
ENCODING 233
SWIDTH 540 0
DWIDTH 9 0
BBX 5 11 2 0
BITMAP
18
20
00
F8
88
88
F8
80
80
80
F8
ENDCHAR
STARTCHAR 00EA
ENCODING 234
SWIDTH 540 0
DWIDTH 9 0
BBX 5 11 2 0
BITMAP
70
D8
00
F8
88
88
F8
80
80
80
F8
ENDCHAR
STARTCHAR 00EB
ENCODING 235
SWIDTH 540 0
DWIDTH 9 0
BBX 5 11 2 0
BITMAP
C8
00
00
F8
88
88
F8
80
80
80
F8
ENDCHAR
STARTCHAR 00EC
ENCODING 236
SWIDTH 540 0
DWIDTH 9 0
BBX 7 11 1 0
BITMAP
70
18
00
F0
10
10
10
10
10
10
1E
ENDCHAR
STARTCHAR 00ED
ENCODING 237
SWIDTH 540 0
DWIDTH 9 0
BBX 7 11 1 0
BITMAP
0C
30
00
F0
10
10
10
10
10
10
1E
ENDCHAR
STARTCHAR 00EE
ENCODING 238
SWIDTH 540 0
DWIDTH 9 0
BBX 7 11 1 0
BITMAP
38
6C
00
F0
10
10
10
10
10
10
1E
ENDCHAR
STARTCHAR 00EF
ENCODING 239
SWIDTH 540 0
DWIDTH 9 0
BBX 7 11 1 0
BITMAP
6C
00
00
F0
10
10
10
10
10
10
1E
ENDCHAR
STARTCHAR 00F0
ENCODING 240
SWIDTH 540 0
DWIDTH 9 0
BBX 5 12 2 0
BITMAP
10
F0
68
08
08
F8
88
88
88
88
88
70
ENDCHAR
STARTCHAR 00F1
ENCODING 241
SWIDTH 540 0
DWIDTH 9 0
BBX 7 11 1 0
BITMAP
7C
00
00
FC
C4
C6
C6
C6
C6
C6
C6
ENDCHAR
STARTCHAR 00F2
ENCODING 242
SWIDTH 540 0
DWIDTH 9 0
BBX 7 11 1 0
BITMAP
30
18
00
7C
C4
C6
C6
C6
C6
C4
7C
ENDCHAR
STARTCHAR 00F3
ENCODING 243
SWIDTH 540 0
DWIDTH 9 0
BBX 7 11 1 0
BITMAP
18
30
00
7C
44
C6
C6
C6
C6
44
7C
ENDCHAR
STARTCHAR 00F4
ENCODING 244
SWIDTH 540 0
DWIDTH 9 0
BBX 7 11 1 0
BITMAP
38
6C
00
7C
44
C6
C6
C6
C6
44
7C
ENDCHAR
STARTCHAR 00F5
ENCODING 245
SWIDTH 540 0
DWIDTH 9 0
BBX 7 11 1 0
BITMAP
7C
00
00
7C
44
C6
C6
C6
C6
44
7C
ENDCHAR
STARTCHAR 00F6
ENCODING 246
SWIDTH 540 0
DWIDTH 9 0
BBX 7 11 1 0
BITMAP
6C
00
00
7C
44
C6
C6
C6
C6
44
7C
ENDCHAR
STARTCHAR 00F7
ENCODING 247
SWIDTH 540 0
DWIDTH 9 0
BBX 7 8 1 1
BITMAP
10
00
00
00
FE
00
00
10
ENDCHAR
STARTCHAR 00F8
ENCODING 248
SWIDTH 540 0
DWIDTH 9 0
BBX 7 11 1 -1
BITMAP
04
0C
7C
4C
DE
D6
D6
F6
64
7C
60
ENDCHAR
STARTCHAR 00F9
ENCODING 249
SWIDTH 540 0
DWIDTH 9 0
BBX 5 11 2 0
BITMAP
C0
30
00
88
88
88
88
88
88
88
F8
ENDCHAR
STARTCHAR 00FA
ENCODING 250
SWIDTH 540 0
DWIDTH 9 0
BBX 5 11 2 0
BITMAP
18
20
00
88
88
88
88
88
88
88
F8
ENDCHAR
STARTCHAR 00FB
ENCODING 251
SWIDTH 540 0
DWIDTH 9 0
BBX 5 11 2 0
BITMAP
70
D8
00
88
88
88
88
88
88
88
F8
ENDCHAR
STARTCHAR 00FC
ENCODING 252
SWIDTH 540 0
DWIDTH 9 0
BBX 5 11 2 0
BITMAP
D8
00
00
88
88
88
88
88
88
88
F8
ENDCHAR
STARTCHAR 00FD
ENCODING 253
SWIDTH 540 0
DWIDTH 9 0
BBX 7 14 1 -3
BITMAP
0C
30
00
C6
46
44
64
2C
28
38
18
18
10
70
ENDCHAR
STARTCHAR 00FE
ENCODING 254
SWIDTH 540 0
DWIDTH 9 0
BBX 6 14 2 -3
BITMAP
80
80
80
F8
88
8C
8C
8C
8C
88
F8
80
80
80
ENDCHAR
STARTCHAR 00FF
ENCODING 255
SWIDTH 540 0
DWIDTH 9 0
BBX 7 13 1 -3
BITMAP
6C
00
C6
46
44
64
2C
28
38
18
18
10
70
ENDCHAR
STARTCHAR 0131
ENCODING 305
SWIDTH 540 0
DWIDTH 9 0
BBX 7 8 1 0
BITMAP
F0
10
10
10
10
10
10
1E
ENDCHAR
STARTCHAR 0141
ENCODING 321
SWIDTH 540 0
DWIDTH 9 0
BBX 7 11 1 0
BITMAP
20
20
20
28
30
E0
20
20
20
20
3E
ENDCHAR
STARTCHAR 0142
ENCODING 322
SWIDTH 540 0
DWIDTH 9 0
BBX 7 11 1 0
BITMAP
F0
10
10
10
1C
70
10
10
10
10
1E
ENDCHAR
STARTCHAR 0152
ENCODING 338
SWIDTH 540 0
DWIDTH 9 0
BBX 9 11 0 0
BITMAP
7F80
4C00
C400
C400
C400
C700
C400
C400
C400
4C00
7F80
ENDCHAR
STARTCHAR 0153
ENCODING 339
SWIDTH 540 0
DWIDTH 9 0
BBX 9 8 0 0
BITMAP
7700
4D80
C980
CF80
C800
C800
4C00
7F00
ENDCHAR
STARTCHAR 0160
ENCODING 352
SWIDTH 540 0
DWIDTH 9 0
BBX 5 14 2 0
BITMAP
C8
70
20
78
C0
80
80
80
F8
08
08
08
18
F0
ENDCHAR
STARTCHAR 0161
ENCODING 353
SWIDTH 540 0
DWIDTH 9 0
BBX 5 11 2 0
BITMAP
D8
70
00
F8
80
80
F0
18
18
18
F0
ENDCHAR
STARTCHAR 0178
ENCODING 376
SWIDTH 540 0
DWIDTH 9 0
BBX 7 13 1 0
BITMAP
6C
00
C6
C4
64
68
28
30
10
10
10
10
10
ENDCHAR
STARTCHAR 017D
ENCODING 381
SWIDTH 540 0
DWIDTH 9 0
BBX 7 14 1 0
BITMAP
64
38
18
7E
04
0C
08
18
10
30
20
60
C0
FC
ENDCHAR
STARTCHAR 017E
ENCODING 382
SWIDTH 540 0
DWIDTH 9 0
BBX 5 11 3 0
BITMAP
D8
30
00
F8
18
18
30
60
40
C0
F8
ENDCHAR
STARTCHAR 0192
ENCODING 402
SWIDTH 540 0
DWIDTH 9 0
BBX 7 14 1 -3
BITMAP
1E
10
10
7E
10
10
10
10
10
10
10
10
10
F0
ENDCHAR
STARTCHAR 02C6
ENCODING 710
SWIDTH 540 0
DWIDTH 9 0
BBX 5 2 2 9
BITMAP
70
D8
ENDCHAR
STARTCHAR 02C7
ENCODING 711
SWIDTH 540 0
DWIDTH 9 0
BBX 5 2 2 9
BITMAP
D8
70
ENDCHAR
STARTCHAR 02C9
ENCODING 713
SWIDTH 540 0
DWIDTH 9 0
BBX 5 1 2 10
BITMAP
F8
ENDCHAR
STARTCHAR 02D8
ENCODING 728
SWIDTH 540 0
DWIDTH 9 0
BBX 5 2 2 9
BITMAP
D8
70
ENDCHAR
STARTCHAR 02D9
ENCODING 729
SWIDTH 540 0
DWIDTH 9 0
BBX 1 1 4 10
BITMAP
80
ENDCHAR
STARTCHAR 02DA
ENCODING 730
SWIDTH 540 0
DWIDTH 9 0
BBX 3 3 3 9
BITMAP
E0
A0
E0
ENDCHAR
STARTCHAR 02DB
ENCODING 731
SWIDTH 540 0
DWIDTH 9 0
BBX 3 4 3 -3
BITMAP
80
80
80
E0
ENDCHAR
STARTCHAR 02DC
ENCODING 732
SWIDTH 540 0
DWIDTH 9 0
BBX 5 2 2 9
BITMAP
68
B8
ENDCHAR
STARTCHAR 02DD
ENCODING 733
SWIDTH 540 0
DWIDTH 9 0
BBX 7 2 1 10
BITMAP
7E
D8
ENDCHAR
STARTCHAR 03BC
ENCODING 956
SWIDTH 540 0
DWIDTH 9 0
BBX 5 11 2 -3
BITMAP
88
88
88
88
88
88
88
F8
80
80
80
ENDCHAR
STARTCHAR 03C0
ENCODING 960
SWIDTH 540 0
DWIDTH 9 0
BBX 7 8 1 0
BITMAP
FE
6C
6C
6C
6C
6C
6C
66
ENDCHAR
STARTCHAR 2013
ENCODING 8211
SWIDTH 540 0
DWIDTH 9 0
BBX 7 1 1 5
BITMAP
FE
ENDCHAR
STARTCHAR 2014
ENCODING 8212
SWIDTH 540 0
DWIDTH 9 0
BBX 7 1 1 5
BITMAP
FE
ENDCHAR
STARTCHAR 2018
ENCODING 8216
SWIDTH 540 0
DWIDTH 9 0
BBX 3 4 3 7
BITMAP
60
40
C0
C0
ENDCHAR
STARTCHAR 2019
ENCODING 8217
SWIDTH 540 0
DWIDTH 9 0
BBX 3 4 3 7
BITMAP
60
60
40
C0
ENDCHAR
STARTCHAR 201A
ENCODING 8218
SWIDTH 540 0
DWIDTH 9 0
BBX 3 4 3 -3
BITMAP
60
60
40
C0
ENDCHAR
STARTCHAR 201C
ENCODING 8220
SWIDTH 540 0
DWIDTH 9 0
BBX 5 4 2 7
BITMAP
58
58
D0
D0
ENDCHAR
STARTCHAR 201D
ENCODING 8221
SWIDTH 540 0
DWIDTH 9 0
BBX 5 4 2 7
BITMAP
58
58
D0
D0
ENDCHAR
STARTCHAR 201E
ENCODING 8222
SWIDTH 540 0
DWIDTH 9 0
BBX 5 4 2 -3
BITMAP
58
58
D0
D0
ENDCHAR
STARTCHAR 2020
ENCODING 8224
SWIDTH 540 0
DWIDTH 9 0
BBX 7 11 1 0
BITMAP
10
10
10
FE
10
10
10
10
10
10
10
ENDCHAR
STARTCHAR 2021
ENCODING 8225
SWIDTH 540 0
DWIDTH 9 0
BBX 7 11 1 0
BITMAP
10
10
10
FE
10
10
FE
10
10
10
10
ENDCHAR
STARTCHAR 2022
ENCODING 8226
SWIDTH 540 0
DWIDTH 9 0
BBX 3 2 3 4
BITMAP
E0
E0
ENDCHAR
STARTCHAR 2026
ENCODING 8230
SWIDTH 540 0
DWIDTH 9 0
BBX 7 1 1 0
BITMAP
92
ENDCHAR
STARTCHAR 2030
ENCODING 8240
SWIDTH 540 0
DWIDTH 9 0
BBX 9 11 0 0
BITMAP
7000
9000
9000
F000
1F80
E000
7700
9480
9480
9480
7700
ENDCHAR
STARTCHAR 2039
ENCODING 8249
SWIDTH 540 0
DWIDTH 9 0
BBX 3 7 3 1
BITMAP
60
40
40
C0
40
40
60
ENDCHAR
STARTCHAR 203A
ENCODING 8250
SWIDTH 540 0
DWIDTH 9 0
BBX 3 7 3 1
BITMAP
C0
40
40
60
40
40
C0
ENDCHAR
STARTCHAR 2044
ENCODING 8260
SWIDTH 540 0
DWIDTH 9 0
BBX 5 15 2 -2
BITMAP
08
08
18
10
10
10
20
20
20
60
40
40
C0
80
80
ENDCHAR
STARTCHAR 20AC
ENCODING 8364
SWIDTH 540 0
DWIDTH 9 0
BBX 7 11 1 0
BITMAP
1E
20
20
FC
20
20
FC
20
20
30
1E
ENDCHAR
STARTCHAR 2122
ENCODING 8482
SWIDTH 540 0
DWIDTH 9 0
BBX 9 9 0 3
BITMAP
FD80
2D80
2D80
2E80
2A80
2A80
2880
2880
2880
ENDCHAR
STARTCHAR 2126
ENCODING 8486
SWIDTH 540 0
DWIDTH 9 0
BBX 7 12 1 0
BITMAP
38
7C
C6
C6
C6
C6
C6
C6
C6
C6
C4
EE
ENDCHAR
STARTCHAR 2202
ENCODING 8706
SWIDTH 540 0
DWIDTH 9 0
BBX 5 12 2 0
BITMAP
F0
F8
08
08
08
F8
88
88
88
88
88
70
ENDCHAR
STARTCHAR 2206
ENCODING 8710
SWIDTH 540 0
DWIDTH 9 0
BBX 7 12 1 0
BITMAP
18
38
28
28
28
6C
64
44
44
C6
C6
FE
ENDCHAR
STARTCHAR 220F
ENCODING 8719
SWIDTH 540 0
DWIDTH 9 0
BBX 7 12 1 0
BITMAP
FE
FE
4C
4C
4C
4C
4C
4C
4C
4C
4C
46
ENDCHAR
STARTCHAR 2211
ENCODING 8721
SWIDTH 540 0
DWIDTH 9 0
BBX 7 15 1 -3
BITMAP
FE
FE
40
60
20
30
10
18
10
30
20
60
40
C0
FE
ENDCHAR
STARTCHAR 2212
ENCODING 8722
SWIDTH 540 0
DWIDTH 9 0
BBX 7 1 1 5
BITMAP
FE
ENDCHAR
STARTCHAR 2215
ENCODING 8725
SWIDTH 540 0
DWIDTH 9 0
BBX 7 16 1 -2
BITMAP
06
04
04
0C
08
08
18
10
10
30
20
20
60
40
40
C0
ENDCHAR
STARTCHAR 2219
ENCODING 8729
SWIDTH 540 0
DWIDTH 9 0
BBX 1 2 4 4
BITMAP
80
80
ENDCHAR
STARTCHAR 221A
ENCODING 8730
SWIDTH 540 0
DWIDTH 9 0
BBX 9 14 0 0
BITMAP
0380
0780
0600
0400
0400
0400
0C00
CC00
4800
4800
6800
7800
3000
3000
ENDCHAR
STARTCHAR 221E
ENCODING 8734
SWIDTH 540 0
DWIDTH 9 0
BBX 9 6 0 2
BITMAP
7700
DD80
C980
C980
FF80
7600
ENDCHAR
STARTCHAR 2224
ENCODING 8740
SWIDTH 540 0
DWIDTH 9 0
BBX 1 2 4 4
BITMAP
80
80
ENDCHAR
STARTCHAR 2227
ENCODING 8743
SWIDTH 540 0
DWIDTH 9 0
BBX 1 2 4 4
BITMAP
80
80
ENDCHAR
STARTCHAR 222B
ENCODING 8747
SWIDTH 540 0
DWIDTH 9 0
BBX 7 18 1 -4
BITMAP
0E
1E
10
10
10
10
10
10
10
10
10
10
10
10
10
10
10
F0
ENDCHAR
STARTCHAR 2248
ENCODING 8776
SWIDTH 540 0
DWIDTH 9 0
BBX 5 5 2 3
BITMAP
48
F8
00
E8
F8
ENDCHAR
STARTCHAR 2260
ENCODING 8800
SWIDTH 540 0
DWIDTH 9 0
BBX 7 8 1 1
BITMAP
06
FE
FE
10
30
FE
40
C0
ENDCHAR
STARTCHAR 2264
ENCODING 8804
SWIDTH 540 0
DWIDTH 9 0
BBX 7 9 1 0
BITMAP
06
1C
F0
C0
70
1E
02
00
FE
ENDCHAR
STARTCHAR 2265
ENCODING 8805
SWIDTH 540 0
DWIDTH 9 0
BBX 7 9 1 0
BITMAP
C0
70
1E
06
1C
F0
80
00
FE
ENDCHAR
STARTCHAR 22C5
ENCODING 8901
SWIDTH 540 0
DWIDTH 9 0
BBX 1 2 4 4
BITMAP
80
80
ENDCHAR
STARTCHAR 25AF
ENCODING 9647
SWIDTH 540 0
DWIDTH 9 0
BBX 7 12 1 0
BITMAP
FE
FE
C6
C6
C6
C6
C6
C6
C6
C6
C6
FE
ENDCHAR
STARTCHAR 25CA
ENCODING 9674
SWIDTH 540 0
DWIDTH 9 0
BBX 7 12 1 0
BITMAP
10
38
28
6C
44
44
C6
44
6C
28
28
38
ENDCHAR
STARTCHAR 2620
ENCODING 9760
SWIDTH 540 0
DWIDTH 9 0
BBX 11 9 -1 0
BITMAP
0E00
1F00
1F00
5540
FBE0
0E00
1F00
60C0
4040
ENDCHAR
STARTCHAR 263A
ENCODING 9786
SWIDTH 540 0
DWIDTH 9 0
BBX 9 9 0 0
BITMAP
3E00
6300
D580
B680
8080
A280
DD80
4300
3E00
ENDCHAR
STARTCHAR 263B
ENCODING 9787
SWIDTH 540 0
DWIDTH 9 0
BBX 9 9 0 0
BITMAP
3E00
7F00
FB80
C980
FF80
DD80
EB80
7F00
3E00
ENDCHAR
STARTCHAR 263C
ENCODING 9788
SWIDTH 540 0
DWIDTH 9 0
BBX 9 9 0 0
BITMAP
0800
4900
3E00
2200
E380
2200
3E00
4900
0800
ENDCHAR
STARTCHAR 2640
ENCODING 9792
SWIDTH 540 0
DWIDTH 9 0
BBX 5 9 2 0
BITMAP
70
88
88
88
70
20
F8
20
20
ENDCHAR
STARTCHAR 2642
ENCODING 9794
SWIDTH 540 0
DWIDTH 9 0
BBX 9 8 0 0
BITMAP
0700
0280
0480
7880
4400
8400
4400
3800
ENDCHAR
STARTCHAR 2660
ENCODING 9824
SWIDTH 540 0
DWIDTH 9 0
BBX 7 9 1 0
BITMAP
10
38
7C
FE
FE
FE
D6
10
FE
ENDCHAR
STARTCHAR 2663
ENCODING 9827
SWIDTH 540 0
DWIDTH 9 0
BBX 7 9 1 0
BITMAP
38
7C
38
FE
FE
FE
D6
10
FE
ENDCHAR
STARTCHAR 2665
ENCODING 9829
SWIDTH 540 0
DWIDTH 9 0
BBX 9 9 0 0
BITMAP
7700
F780
FF80
7F00
7F00
3E00
3E00
1C00
0800
ENDCHAR
STARTCHAR 2666
ENCODING 9830
SWIDTH 540 0
DWIDTH 9 0
BBX 7 9 1 0
BITMAP
10
38
38
7C
FE
7C
38
38
10
ENDCHAR
STARTCHAR 266A
ENCODING 9834
SWIDTH 540 0
DWIDTH 9 0
BBX 5 9 2 0
BITMAP
10
28
28
28
20
20
20
E0
E0
ENDCHAR
STARTCHAR 266B
ENCODING 9835
SWIDTH 540 0
DWIDTH 9 0
BBX 9 10 0 0
BITMAP
0080
0F80
1880
1080
1080
1080
1080
1780
F780
F000
ENDCHAR
STARTCHAR FB01
ENCODING 64257
SWIDTH 1080 0
DWIDTH 18 0
BBX 15 11 2 0
BITMAP
7810
6000
4000
F8F0
4010
4010
4010
4010
4010
4010
F81E
ENDCHAR
STARTCHAR FB02
ENCODING 64258
SWIDTH 1080 0
DWIDTH 18 0
BBX 15 11 2 0
BITMAP
78F0
6010
4010
F810
4010
4010
4010
4010
4010
4010
F81E
ENDCHAR
ENDFONT
